{"title":"Moon Child (1989) El niño de la luna","uid":10111025,"size":1470113764,"categoryP":"video","categoryS":"movies","magnet":"?xt=urn:btih:94433583d6f8aa28982da78b2ed0fc7cfc0ec43a&amp;dn=Moon+Child+%281989%29+El+ni%26ntilde%3Bo+de+la+luna&amp;tr=udp%3A%2F%2Ftracker.openbittorrent.com%3A80&amp;tr=udp%3A%2F%2Fopen.demonii.com%3A1337&amp;tr=udp%3A%2F%2Ftracker.coppersurfer.tk%3A6969&amp;tr=udp%3A%2F%2Fexodus.desync.com%3A6969","seeders":1,"leechers":1,"uploader":"alex0008","files":-1,"time":1399514259,"description":"This is a rare video, so try to seed it for a long time, will you?\n\nDO YOUR PART:  SEED\nDO YOUR PART:  SEED\nDO YOUR PART:  SEED\n\n=======================================================================\n\nFormat                                   : AVI\nFormat/Info                              : Audio Video Interleave\nFile size                                : 1.37 GiB\nDuration                                 : 1h 56mn\nOverall bit rate                         : 1 682 Kbps\nWriting application                      : VirtualDubMod 1.5.10.2 (build 2540/release)\nWriting library                          : VirtualDubMod build 2540/release\n\nVideo\nID                                       : 0\nFormat                                   : MPEG-4 Visual\nFormat profile                           : Advanced Simple@L5\nFormat settings, BVOP                    : 1\nFormat settings, QPel                    : No\nFormat settings, GMC                     : No warppoints\nFormat settings, Matrix                  : Custom\nCodec ID                                 : XVID\nCodec ID/Hint                            : XviD\nDuration                                 : 1h 56mn\nBit rate                                 : 1 417 Kbps\nWidth                                    : 624 pixels\nHeight                                   : 400 pixels\nDisplay aspect ratio                     : 16:10\nFrame rate                               : 25.000 fps\nColor space                              : YUV\nChroma subsampling                       : 4:2:0\nBit depth                                : 8 bits\nScan type                                : Progressive\nCompression mode                         : Lossy\nBits/(Pixel*Frame)                       : 0.227\nStream size                              : 1.15 GiB (84%)\nWriting library                          : XviD 1.0.1 (UTC 2004-06-05)\n\nAudio\nID                                       : 1\nFormat                                   : AC-3\nFormat/Info                              : Audio Coding 3\nFormat profile                           : Dolby Digital\nMode extension                           : CM (complete main)\nFormat settings, Endianness              : Big\nCodec ID                                 : 2000\nDuration                                 : 1h 56mn\nBit rate mode                            : Constant\nBit rate                                 : 256 Kbps\nChannel(s)                               : 2 channels\nChannel positions                        : Front: L R\nSampling rate                            : 48.0 KHz\nBit depth                                : 16 bits\nCompression mode                         : Lossy\nDelay relative to video                  : 80ms\nStream size                              : 213 MiB (15%)\nAlignment                                : Split accross interleaves\nInterleave, duration                     : 40 ms (1.00 video frame)\nInterleave, preload duration             : 500 ms\nLanguage                                 : Espanol / Espanol","torrent":{"xt":"urn:btih:94433583d6f8aa28982da78b2ed0fc7cfc0ec43a","amp;dn":"Moon+Child+%281989%29+El+ni%26ntilde%3Bo+de+la+luna","amp;tr":["udp%3A%2F%2Ftracker.openbittorrent.com%3A80","udp%3A%2F%2Fopen.demonii.com%3A1337","udp%3A%2F%2Ftracker.coppersurfer.tk%3A6969","udp%3A%2F%2Fexodus.desync.com%3A6969"],"infoHash":"94433583d6f8aa28982da78b2ed0fc7cfc0ec43a","infoHashBuffer":{"type":"Buffer","data":[148,67,53,131,214,248,170,40,152,45,167,139,46,208,252,124,252,14,196,58]},"announce":[],"urlList":[]}}